<svg width="64" height="27" viewBox="0 0 64 27" fill="none" xmlns="http://www.w3.org/2000/svg">
<g clip-path="url(#clip0_25_28704)">
<mask id="mask0_25_28704" style="mask-type:luminance" maskUnits="userSpaceOnUse" x="0" y="0" width="64" height="27">
<path d="M63.9216 0H0V26.9958H63.9216V0Z" fill="white"/>
</mask>
<g mask="url(#mask0_25_28704)">
<path d="M15.4081 3.24527C14.5171 1.98213 13.3354 1.10096 11.8954 0.627938C11.062 0.352705 10.012 0.204101 8.76758 0.18631H0V20.4122H8.76758C10.2965 20.4122 11.6497 20.0899 12.7906 19.4547C13.9357 18.8173 14.8884 17.8514 15.6256 16.5841C16.6923 14.7391 17.2329 12.465 17.2329 9.82678C17.2329 8.7855 17.1064 7.6762 16.8554 6.52922C16.5992 5.35817 16.1129 4.2541 15.4081 3.24631V3.24527ZM12.2573 9.32445C12.2573 9.55887 12.2573 9.81527 12.2573 10.102C12.2573 11.4677 12.0596 12.6555 11.6716 13.6319C10.9856 15.3481 9.81229 16.1833 8.08366 16.1833H4.78954V4.41527H8.08366C9.7485 4.41527 10.8643 4.87364 11.3976 5.77678C11.4667 5.89503 11.5294 6.00387 11.588 6.10643C11.9707 6.9248 12.1945 8.00271 12.2562 9.32445H12.2573Z" fill="#BF2E25"/>
<path d="M63.544 6.52919C63.2878 5.35814 62.8015 4.25407 62.0967 3.24628C61.2057 1.98314 60.024 1.10198 58.584 0.62896C57.7506 0.353727 56.7006 0.205123 55.4562 0.187332H46.6886V20.4122H55.4562C56.9851 20.4122 58.3383 20.0899 59.4792 19.4547C60.6243 18.8173 61.578 17.8514 62.3142 16.5841C63.3809 14.7391 63.9215 12.465 63.9215 9.82675C63.9215 8.78547 63.795 7.67617 63.544 6.52919ZM58.9459 9.32442C58.9459 9.55884 58.9459 9.81524 58.9459 10.102C58.9459 11.4677 58.7482 12.6555 58.3602 13.6319C57.6742 15.3481 56.5009 16.1833 54.7723 16.1833H51.4781V4.41524H54.7723C56.4371 4.41524 57.5529 4.87361 58.0862 5.77675C58.1553 5.895 58.218 6.00384 58.2766 6.1064C58.6593 6.92477 58.8831 8.00268 58.9448 9.32442H58.9459Z" fill="#BF2E25"/>
<path d="M40.0596 12.0286L37.4253 0.370465V0H32.5731V20.3944H37.4253V8.63581L40.0533 20.2667H40.0596V20.3944H44.9119V0H40.0596V12.0286Z" fill="#BF2E25"/>
<path d="M44.9119 22.14H32.6264V26.9958H44.9119V22.14Z" fill="#BF2E25"/>
<path d="M25.9179 0.0104651H25.9137L24.6087 6.17756L23.2847 0.101512V0H18.4314V20.3944H23.2847V8.79593L24.5459 17.2193L25.9179 8.775V20.3944H30.7713V0H25.9179V0.0104651Z" fill="#BF2E25"/>
</g>
</g>
<defs>
<clipPath id="clip0_25_28704">
<rect width="64" height="27" fill="white"/>
</clipPath>
</defs>
</svg>
